<?xml version="1.0" encoding="UTF-8" standalone="no"?>
<!-- Created with Inkscape (http://www.inkscape.org/) -->

<svg
   width="105.88197mm"
   height="105.83334mm"
   viewBox="0 0 105.88197 105.83334"
   version="1.1"
   id="svg5"
   xml:space="preserve"
   inkscape:version="1.2.2 (b0a8486541, 2022-12-01)"
   sodipodi:docname="dpcPodcastGenericLogo_inverse.svg"
   xmlns:inkscape="http://www.inkscape.org/namespaces/inkscape"
   xmlns:sodipodi="http://sodipodi.sourceforge.net/DTD/sodipodi-0.dtd"
   xmlns="http://www.w3.org/2000/svg"
   xmlns:svg="http://www.w3.org/2000/svg"><sodipodi:namedview
     id="namedview7"
     pagecolor="#ffffff"
     bordercolor="#666666"
     borderopacity="1.0"
     inkscape:showpageshadow="2"
     inkscape:pageopacity="0.0"
     inkscape:pagecheckerboard="0"
     inkscape:deskcolor="#d1d1d1"
     inkscape:document-units="mm"
     showgrid="false"
     inkscape:zoom="0.60413272"
     inkscape:cx="663.76143"
     inkscape:cy="407.19529"
     inkscape:window-width="1920"
     inkscape:window-height="1017"
     inkscape:window-x="0"
     inkscape:window-y="28"
     inkscape:window-maximized="1"
     inkscape:current-layer="layer1" /><defs
     id="defs2" /><g
     inkscape:label="Layer 1"
     inkscape:groupmode="layer"
     id="layer1"
     transform="translate(18.831014,-7.850506)"><path
       style="fill:#030303;stroke:none;stroke-width:1"
       d="M -18.831014,7.850506 V 113.68385 H 87.002323 V 7.850506 H -18.831014 m 38.099997,3.175 v 22.930557 h 20.46112 v 12.347223 l -0.36266,4.726164 -5.28179,0.565503 H 19.268983 V 95.692175 106.6283 l -0.5655,3.87067 -4.72616,0.36266 H 1.9828735 V 51.594953 H -18.478236 V 33.956063 H 1.9828735 V 11.025506 H 19.268983 m 9.87778,99.130564 V 94.986625 c 9.67105,-0.19967 20.17819,-1.970619 27.86945,-8.277933 14.49599,-11.886848 15.06114,-38.409036 1.05833,-50.927498 -7.80309,-6.975793 -18.85421,-8.527909 -28.92778,-8.527909 V 16.669951 c 0,-1.101231 -0.369,-3.096895 0.36266,-4.020467 0.65652,-0.829169 2.24261,-0.566703 3.16512,-0.565644 2.78589,0.0032 5.70477,0.247438 8.46667,0.606213 12.88697,1.67386 24.61366,5.784886 33.86138,15.268788 17.18592,17.624426 15.65134,51.657606 -2.46416,68.026144 -12.03325,10.872965 -27.64719,14.171085 -43.39167,14.171085 z"
       id="path183" /></g></svg>
