<?xml version="1.0" encoding="UTF-8" standalone="no"?>
<!DOCTYPE svg PUBLIC "-//W3C//DTD SVG 1.1//EN" "http://www.w3.org/Graphics/SVG/1.1/DTD/svg11.dtd">
<svg width="100%" height="100%" viewBox="0 0 1080 1080" version="1.1" xmlns="http://www.w3.org/2000/svg" xmlns:xlink="http://www.w3.org/1999/xlink" xml:space="preserve" xmlns:serif="http://www.serif.com/" style="fill-rule:evenodd;clip-rule:evenodd;stroke-linejoin:round;stroke-miterlimit:2;">
    <g transform="matrix(1,0,0,1,-420,0)">
        <g id="Layer-1" serif:id="Layer 1">
            <rect x="0" y="0" width="1920" height="1080" style="fill:rgb(235,235,235);"/>
            <path id="path181" d="M675.266,975.893C674.445,973.754 674.14,856.286 674.587,714.854L675.4,457.703L586.056,457.703L496.712,457.703L496.712,302.323L586.056,302.324L675.4,302.325L675.4,101.882L752.313,101.051L829.226,100.219L829.226,302.322L1009.47,302.322L1009.47,457.703L829.226,457.703L829.226,979.781L752.993,979.781C694.829,979.781 676.405,978.859 675.266,975.892L675.266,975.893ZM916.954,906.413L917.793,838.385L955.084,836.297C1095.15,828.453 1191.58,770.876 1235.23,669.036C1267.79,593.065 1264.67,467.83 1228.38,393.967C1182.25,300.094 1095.85,253.283 952.753,244.639L916.239,242.434L916.239,108.678L963.951,110.647C1018.25,112.888 1062,118.802 1108.28,130.158C1213.17,155.894 1299.46,212.898 1353.72,292.299C1403.6,365.284 1423.24,435.684 1423.29,541.672C1423.32,623.802 1411.9,676.13 1380.57,737.388C1318.71,858.327 1202.06,938.116 1046.76,965.715C1030.52,968.601 994.484,971.744 966.676,972.701L916.115,974.441L916.954,906.413Z" style="fill-rule:nonzero;"/>
        </g>
    </g>
</svg>
